<?xml version="1.0" encoding="UTF-8"?>
<!DOCTYPE svg PUBLIC "-//W3C//DTD SVG 1.1//EN" "http://www.w3.org/Graphics/SVG/1.1/DTD/svg11.dtd">
<svg xmlns="http://www.w3.org/2000/svg" style="background-color: rgb(255, 255, 255);" xmlns:xlink="http://www.w3.org/1999/xlink" version="1.1" width="630px" height="531px" viewBox="-0.5 -0.5 630 531"><defs><clipPath id="mx-clip-4-38-152-26-0"><rect x="4" y="38" width="152" height="26"/></clipPath><clipPath id="mx-clip-4-138-152-26-0"><rect x="4" y="138" width="152" height="26"/></clipPath><clipPath id="mx-clip-4-238-152-26-0"><rect x="4" y="238" width="152" height="26"/></clipPath><clipPath id="mx-clip-4-264-152-26-0"><rect x="4" y="264" width="152" height="26"/></clipPath><clipPath id="mx-clip-4-358-152-26-0"><rect x="4" y="358" width="152" height="26"/></clipPath><clipPath id="mx-clip-4-384-152-26-0"><rect x="4" y="384" width="152" height="26"/></clipPath><clipPath id="mx-clip-4-478-152-24-0"><rect x="4" y="478" width="152" height="24"/></clipPath><clipPath id="mx-clip-4-502-152-30-0"><rect x="4" y="502" width="152" height="30"/></clipPath><clipPath id="mx-clip-424-58-152-26-0"><rect x="424" y="58" width="152" height="26"/></clipPath><clipPath id="mx-clip-424-84-152-26-0"><rect x="424" y="84" width="152" height="26"/></clipPath><clipPath id="mx-clip-424-179-152-26-0"><rect x="424" y="179" width="152" height="26"/></clipPath><clipPath id="mx-clip-424-205-152-26-0"><rect x="424" y="205" width="152" height="26"/></clipPath><clipPath id="mx-clip-224-58-152-26-0"><rect x="224" y="58" width="152" height="26"/></clipPath><clipPath id="mx-clip-224-84-152-26-0"><rect x="224" y="84" width="152" height="26"/></clipPath><clipPath id="mx-clip-224-110-152-26-0"><rect x="224" y="110" width="152" height="26"/></clipPath><clipPath id="mx-clip-224-136-152-36-0"><rect x="224" y="136" width="152" height="36"/></clipPath><clipPath id="mx-clip-424-298-152-34-0"><rect x="424" y="298" width="152" height="34"/></clipPath><clipPath id="mx-clip-424-398-152-26-0"><rect x="424" y="398" width="152" height="26"/></clipPath><clipPath id="mx-clip-424-424-152-26-0"><rect x="424" y="424" width="152" height="26"/></clipPath><clipPath id="mx-clip-224-238-152-26-0"><rect x="224" y="238" width="152" height="26"/></clipPath><clipPath id="mx-clip-224-398-152-26-0"><rect x="224" y="398" width="152" height="26"/></clipPath></defs><g><path d="M 0 33 L 0 7 L 160 7 L 160 33" fill="rgb(255, 255, 255)" stroke="rgb(0, 0, 0)" stroke-miterlimit="10" pointer-events="all"/><path d="M 0 33 L 0 67 L 160 67 L 160 33" fill="none" stroke="rgb(0, 0, 0)" stroke-miterlimit="10" pointer-events="none"/><path d="M 0 33 L 160 33" fill="none" stroke="rgb(0, 0, 0)" stroke-miterlimit="10" pointer-events="none"/><g fill="rgb(0, 0, 0)" font-family="Helvetica" font-style="italic" text-anchor="middle" font-size="12px"><text x="79.5" y="24.5">MultiExperimentLoss</text></g><rect x="0" y="33" width="160" height="26" fill="none" stroke="none" pointer-events="all"/><g fill="rgb(0, 0, 0)" font-family="Helvetica" clip-path="url(#mx-clip-4-38-152-26-0)" font-size="12px"><text x="5.5" y="50.5">experiments: [Experiment]</text></g><path d="M 0 133 L 0 107 L 160 107 L 160 133" fill="rgb(255, 255, 255)" stroke="rgb(0, 0, 0)" stroke-miterlimit="10" pointer-events="all"/><path d="M 0 133 L 0 167 L 160 167 L 160 133" fill="none" stroke="rgb(0, 0, 0)" stroke-miterlimit="10" pointer-events="none"/><path d="M 0 133 L 160 133" fill="none" stroke="rgb(0, 0, 0)" stroke-miterlimit="10" pointer-events="none"/><g fill="rgb(0, 0, 0)" font-family="Helvetica" font-style="italic" text-anchor="middle" font-size="12px"><text x="79.5" y="124.5">Experiment</text></g><rect x="0" y="133" width="160" height="26" fill="none" stroke="none" pointer-events="all"/><g fill="rgb(0, 0, 0)" font-family="Helvetica" clip-path="url(#mx-clip-4-138-152-26-0)" font-size="12px"><text x="5.5" y="150.5">rounds: [Round]</text></g><path d="M 160 46 L 180 46 L 180 87 L 80 87 L 80 100.63" fill="none" stroke="rgb(0, 0, 0)" stroke-miterlimit="10" pointer-events="stroke"/><path d="M 80 105.88 L 76.5 98.88 L 80 100.63 L 83.5 98.88 Z" fill="rgb(0, 0, 0)" stroke="rgb(0, 0, 0)" stroke-miterlimit="10" pointer-events="all"/><path d="M 0 233 L 0 207 L 160 207 L 160 233" fill="rgb(255, 255, 255)" stroke="rgb(0, 0, 0)" stroke-miterlimit="10" pointer-events="all"/><path d="M 0 233 L 0 287 L 160 287 L 160 233" fill="none" stroke="rgb(0, 0, 0)" stroke-miterlimit="10" pointer-events="none"/><path d="M 0 233 L 160 233" fill="none" stroke="rgb(0, 0, 0)" stroke-miterlimit="10" pointer-events="none"/><g fill="rgb(0, 0, 0)" font-family="Helvetica" font-style="italic" text-anchor="middle" font-size="12px"><text x="79.5" y="224.5">Round</text></g><rect x="0" y="233" width="160" height="26" fill="none" stroke="none" pointer-events="all"/><g fill="rgb(0, 0, 0)" font-family="Helvetica" clip-path="url(#mx-clip-4-238-152-26-0)" font-size="12px"><text x="5.5" y="250.5">aggregate: Aggregate</text></g><rect x="0" y="259" width="160" height="26" fill="none" stroke="none" pointer-events="all"/><g fill="rgb(0, 0, 0)" font-family="Helvetica" clip-path="url(#mx-clip-4-264-152-26-0)" font-size="12px"><text x="5.5" y="276.5">log_eta</text></g><path d="M 160 146 L 180 146 L 180 187 L 80 187 L 80 200.63" fill="none" stroke="rgb(0, 0, 0)" stroke-miterlimit="10" pointer-events="stroke"/><path d="M 80 205.88 L 76.5 198.88 L 80 200.63 L 83.5 198.88 Z" fill="rgb(0, 0, 0)" stroke="rgb(0, 0, 0)" stroke-miterlimit="10" pointer-events="all"/><path d="M 0 353 L 0 327 L 160 327 L 160 353" fill="rgb(255, 255, 255)" stroke="rgb(0, 0, 0)" stroke-miterlimit="10" pointer-events="all"/><path d="M 0 353 L 0 407 L 160 407 L 160 353" fill="none" stroke="rgb(0, 0, 0)" stroke-miterlimit="10" pointer-events="none"/><path d="M 0 353 L 160 353" fill="none" stroke="rgb(0, 0, 0)" stroke-miterlimit="10" pointer-events="none"/><g fill="rgb(0, 0, 0)" font-family="Helvetica" font-style="italic" text-anchor="middle" font-size="12px"><text x="79.5" y="344.5">Aggregate</text></g><rect x="0" y="353" width="160" height="26" fill="none" stroke="none" pointer-events="all"/><g fill="rgb(0, 0, 0)" font-family="Helvetica" clip-path="url(#mx-clip-4-358-152-26-0)" font-size="12px"><text x="5.5" y="370.5">contributions: [Contribution]</text></g><rect x="0" y="379" width="160" height="26" fill="none" stroke="none" pointer-events="all"/><g fill="rgb(0, 0, 0)" font-family="Helvetica" clip-path="url(#mx-clip-4-384-152-26-0)" font-size="12px"><text x="5.5" y="396.5">log_target_concentration</text></g><path d="M 160 246 L 180 246 L 180 307 L 80 307 L 80 320.63" fill="none" stroke="rgb(0, 0, 0)" stroke-miterlimit="10" pointer-events="stroke"/><path d="M 80 325.88 L 76.5 318.88 L 80 320.63 L 83.5 318.88 Z" fill="rgb(0, 0, 0)" stroke="rgb(0, 0, 0)" stroke-miterlimit="10" pointer-events="all"/><path d="M 0 473 L 0 447 L 160 447 L 160 473" fill="rgb(255, 255, 255)" stroke="rgb(0, 0, 0)" stroke-miterlimit="10" pointer-events="all"/><path d="M 0 473 L 0 527 L 160 527 L 160 473" fill="none" stroke="rgb(0, 0, 0)" stroke-miterlimit="10" pointer-events="none"/><path d="M 0 473 L 160 473" fill="none" stroke="rgb(0, 0, 0)" stroke-miterlimit="10" pointer-events="none"/><g fill="rgb(0, 0, 0)" font-family="Helvetica" font-style="italic" text-anchor="middle" font-size="12px"><text x="79.5" y="464.5">Contribution</text></g><rect x="0" y="473" width="160" height="24" fill="none" stroke="none" pointer-events="all"/><g fill="rgb(0, 0, 0)" font-family="Helvetica" clip-path="url(#mx-clip-4-478-152-24-0)" font-size="12px"><text x="5.5" y="490.5">binding: Binding</text></g><rect x="0" y="497" width="160" height="30" fill="none" stroke="none" pointer-events="all"/><g fill="rgb(0, 0, 0)" font-family="Helvetica" clip-path="url(#mx-clip-4-502-152-30-0)" font-size="12px"><text x="5.5" y="514.5">log_alpha</text></g><path d="M 160 366 L 180 367 L 180 427 L 80 427 L 80 440.63" fill="none" stroke="rgb(0, 0, 0)" stroke-miterlimit="10" pointer-events="stroke"/><path d="M 80 445.88 L 76.5 438.88 L 80 440.63 L 83.5 438.88 Z" fill="rgb(0, 0, 0)" stroke="rgb(0, 0, 0)" stroke-miterlimit="10" pointer-events="all"/><path d="M 420 53 L 420 27 L 580 27 L 580 53" fill="rgb(255, 255, 255)" stroke="rgb(0, 0, 0)" stroke-miterlimit="10" pointer-events="all"/><path d="M 420 53 L 420 107 L 580 107 L 580 53" fill="none" stroke="rgb(0, 0, 0)" stroke-miterlimit="10" pointer-events="none"/><path d="M 420 53 L 580 53" fill="none" stroke="rgb(0, 0, 0)" stroke-miterlimit="10" pointer-events="none"/><g fill="rgb(0, 0, 0)" font-family="Helvetica" font-style="italic" text-anchor="middle" font-size="12px"><text x="499.5" y="44.5">Mode (Binding)</text></g><rect x="420" y="53" width="160" height="26" fill="none" stroke="none" pointer-events="all"/><g fill="rgb(0, 0, 0)" font-family="Helvetica" clip-path="url(#mx-clip-424-58-152-26-0)" font-size="12px"><text x="425.5" y="70.5">layers: [Layer] </text></g><rect x="420" y="79" width="160" height="26" fill="none" stroke="none" pointer-events="all"/><g fill="rgb(0, 0, 0)" font-family="Helvetica" clip-path="url(#mx-clip-424-84-152-26-0)" font-size="12px"><text x="425.5" y="96.5">log_hill</text></g><path d="M 160 487 L 200 487 L 200 7 L 500 7 L 500 20.63" fill="none" stroke="rgb(0, 0, 0)" stroke-miterlimit="10" pointer-events="stroke"/><path d="M 500 25.88 L 496.5 18.88 L 500 20.63 L 503.5 18.88 Z" fill="rgb(0, 0, 0)" stroke="rgb(0, 0, 0)" stroke-miterlimit="10" pointer-events="all"/><path d="M 420 174 L 420 148 L 580 148 L 580 174" fill="rgb(255, 255, 255)" stroke="rgb(0, 0, 0)" stroke-miterlimit="10" pointer-events="all"/><path d="M 420 174 L 420 228 L 580 228 L 580 174" fill="none" stroke="rgb(0, 0, 0)" stroke-miterlimit="10" pointer-events="none"/><path d="M 420 174 L 580 174" fill="none" stroke="rgb(0, 0, 0)" stroke-miterlimit="10" pointer-events="none"/><g fill="rgb(0, 0, 0)" font-family="Helvetica" font-style="italic" text-anchor="middle" font-size="12px"><text x="499.5" y="165.5">Conv1d (Layer)</text></g><rect x="420" y="174" width="160" height="26" fill="none" stroke="none" pointer-events="all"/><g fill="rgb(0, 0, 0)" font-family="Helvetica" clip-path="url(#mx-clip-424-179-152-26-0)" font-size="12px"><text x="425.5" y="191.5">layer_spec: PSAM</text></g><rect x="420" y="200" width="160" height="26" fill="none" stroke="none" pointer-events="all"/><g fill="rgb(0, 0, 0)" font-family="Helvetica" clip-path="url(#mx-clip-424-205-152-26-0)" font-size="12px"><text x="425.5" y="217.5">log_omega</text></g><path d="M 580 67 L 600 67 L 600 128 L 500 128 L 500 141.63" fill="none" stroke="rgb(0, 0, 0)" stroke-miterlimit="10" pointer-events="stroke"/><path d="M 500 146.88 L 496.5 139.88 L 500 141.63 L 503.5 139.88 Z" fill="rgb(0, 0, 0)" stroke="rgb(0, 0, 0)" stroke-miterlimit="10" pointer-events="all"/><path d="M 160 485 L 160 487 L 200 487 L 200 7 L 300 7 L 300 20.63" fill="none" stroke="rgb(0, 0, 0)" stroke-miterlimit="10" pointer-events="stroke"/><path d="M 300 25.88 L 296.5 18.88 L 300 20.63 L 303.5 18.88 Z" fill="rgb(0, 0, 0)" stroke="rgb(0, 0, 0)" stroke-miterlimit="10" pointer-events="all"/><path d="M 220 53 L 220 27 L 380 27 L 380 53" fill="rgb(255, 255, 255)" stroke="rgb(0, 0, 0)" stroke-miterlimit="10" pointer-events="all"/><path d="M 220 53 L 220 167 L 380 167 L 380 53" fill="none" stroke="rgb(0, 0, 0)" stroke-miterlimit="10" pointer-events="none"/><path d="M 220 53 L 380 53" fill="none" stroke="rgb(0, 0, 0)" stroke-miterlimit="10" pointer-events="none"/><g fill="rgb(0, 0, 0)" font-family="Helvetica" font-style="italic" text-anchor="middle" font-size="12px"><text x="299.5" y="44.5">Cooperativity (Binding)</text></g><rect x="220" y="53" width="160" height="26" fill="none" stroke="none" pointer-events="all"/><g fill="rgb(0, 0, 0)" font-family="Helvetica" clip-path="url(#mx-clip-224-58-152-26-0)" font-size="12px"><text x="225.5" y="70.5">binding_mode_0: Mode </text></g><rect x="220" y="79" width="160" height="26" fill="none" stroke="none" pointer-events="all"/><g fill="rgb(0, 0, 0)" font-family="Helvetica" clip-path="url(#mx-clip-224-84-152-26-0)" font-size="12px"><text x="225.5" y="96.5">binding_mode_0: Mode </text></g><rect x="220" y="105" width="160" height="26" fill="none" stroke="none" pointer-events="all"/><g fill="rgb(0, 0, 0)" font-family="Helvetica" clip-path="url(#mx-clip-224-110-152-26-0)" font-size="12px"><text x="225.5" y="122.5">spacing: Spacing </text></g><rect x="220" y="131" width="160" height="36" fill="none" stroke="none" pointer-events="all"/><g fill="rgb(0, 0, 0)" font-family="Helvetica" clip-path="url(#mx-clip-224-136-152-36-0)" font-size="12px"><text x="225.5" y="148.5">log_omega</text></g><path d="M 420 293 L 420 267 L 580 267 L 580 293" fill="rgb(255, 255, 255)" stroke="rgb(0, 0, 0)" stroke-miterlimit="10" pointer-events="all"/><path d="M 420 293 L 420 327 L 580 327 L 580 293" fill="none" stroke="rgb(0, 0, 0)" stroke-miterlimit="10" pointer-events="none"/><path d="M 420 293 L 580 293" fill="none" stroke="rgb(0, 0, 0)" stroke-miterlimit="10" pointer-events="none"/><g fill="rgb(0, 0, 0)" font-family="Helvetica" font-style="italic" text-anchor="middle" font-size="12px"><text x="499.5" y="284.5">PSAM (LayerSpec)</text></g><rect x="420" y="293" width="160" height="34" fill="none" stroke="none" pointer-events="all"/><g fill="rgb(0, 0, 0)" font-family="Helvetica" clip-path="url(#mx-clip-424-298-152-34-0)" font-size="12px"><text x="425.5" y="310.5">betas: ParameterDict</text></g><path d="M 580 187 L 600 187 L 600 248 L 500 248 L 500 260.63" fill="none" stroke="rgb(0, 0, 0)" stroke-miterlimit="10" pointer-events="stroke"/><path d="M 500 265.88 L 496.5 258.88 L 500 260.63 L 503.5 258.88 Z" fill="rgb(0, 0, 0)" stroke="rgb(0, 0, 0)" stroke-miterlimit="10" pointer-events="all"/><path d="M 420 393 L 420 367 L 580 367 L 580 393" fill="rgb(255, 255, 255)" stroke="rgb(0, 0, 0)" stroke-miterlimit="10" pointer-events="all"/><path d="M 420 393 L 420 447 L 580 447 L 580 393" fill="none" stroke="rgb(0, 0, 0)" stroke-miterlimit="10" pointer-events="none"/><path d="M 420 393 L 580 393" fill="none" stroke="rgb(0, 0, 0)" stroke-miterlimit="10" pointer-events="none"/><g fill="rgb(0, 0, 0)" font-family="Helvetica" font-style="italic" text-anchor="middle" font-size="12px"><text x="499.5" y="384.5">Conv0d (Layer)</text></g><rect x="420" y="393" width="160" height="26" fill="none" stroke="none" pointer-events="all"/><g fill="rgb(0, 0, 0)" font-family="Helvetica" clip-path="url(#mx-clip-424-398-152-26-0)" font-size="12px"><text x="425.5" y="410.5">layer_spec: NonSpecific</text></g><rect x="420" y="419" width="160" height="26" fill="none" stroke="none" pointer-events="all"/><g fill="rgb(0, 0, 0)" font-family="Helvetica" clip-path="url(#mx-clip-424-424-152-26-0)" font-size="12px"><text x="425.5" y="436.5">log_omega</text></g><path d="M 580 66 L 620 67 L 620 347 L 500 347 L 500 360.63" fill="none" stroke="rgb(0, 0, 0)" stroke-miterlimit="10" pointer-events="stroke"/><path d="M 500 365.88 L 496.5 358.88 L 500 360.63 L 503.5 358.88 Z" fill="rgb(0, 0, 0)" stroke="rgb(0, 0, 0)" stroke-miterlimit="10" pointer-events="all"/><path d="M 420 514 L 420 488 L 580 488 L 580 514" fill="rgb(255, 255, 255)" stroke="rgb(0, 0, 0)" stroke-miterlimit="10" pointer-events="all"/><path d="M 420 514 L 420 517 L 580 517 L 580 514" fill="none" stroke="rgb(0, 0, 0)" stroke-miterlimit="10" pointer-events="none"/><path d="M 420 514 L 580 514" fill="none" stroke="rgb(0, 0, 0)" stroke-miterlimit="10" pointer-events="none"/><g fill="rgb(0, 0, 0)" font-family="Helvetica" font-style="italic" text-anchor="middle" font-size="12px"><text x="499.5" y="505.5">Nonspecific (LayerSpec)</text></g><path d="M 380 66 L 400 66 L 400 47 L 413.63 47" fill="none" stroke="rgb(0, 0, 0)" stroke-miterlimit="10" pointer-events="stroke"/><path d="M 418.88 47 L 411.88 50.5 L 413.63 47 L 411.88 43.5 Z" fill="rgb(0, 0, 0)" stroke="rgb(0, 0, 0)" stroke-miterlimit="10" pointer-events="all"/><path d="M 380 92 L 400 92 L 400 47 L 413.63 47" fill="none" stroke="rgb(0, 0, 0)" stroke-miterlimit="10" pointer-events="stroke"/><path d="M 418.88 47 L 411.88 50.5 L 413.63 47 L 411.88 43.5 Z" fill="rgb(0, 0, 0)" stroke="rgb(0, 0, 0)" stroke-miterlimit="10" pointer-events="all"/><path d="M 220 233 L 220 207 L 380 207 L 380 233" fill="rgb(255, 255, 255)" stroke="rgb(0, 0, 0)" stroke-miterlimit="10" pointer-events="all"/><path d="M 220 233 L 220 259 L 380 259 L 380 233" fill="none" stroke="rgb(0, 0, 0)" stroke-miterlimit="10" pointer-events="none"/><path d="M 220 233 L 380 233" fill="none" stroke="rgb(0, 0, 0)" stroke-miterlimit="10" pointer-events="none"/><g fill="rgb(0, 0, 0)" font-family="Helvetica" font-style="italic" text-anchor="middle" font-size="12px"><text x="299.5" y="224.5">Spacing (Spec)</text></g><rect x="220" y="233" width="160" height="26" fill="none" stroke="none" pointer-events="all"/><g fill="rgb(0, 0, 0)" font-family="Helvetica" clip-path="url(#mx-clip-224-238-152-26-0)" font-size="12px"><text x="225.5" y="250.5">flat_log_spacing</text></g><path d="M 379.52 114.72 L 400 114.67 L 400 187 L 300 187 L 300 200.63" fill="none" stroke="rgb(0, 0, 0)" stroke-miterlimit="10" pointer-events="stroke"/><path d="M 300 205.88 L 296.5 198.88 L 300 200.63 L 303.5 198.88 Z" fill="rgb(0, 0, 0)" stroke="rgb(0, 0, 0)" stroke-miterlimit="10" pointer-events="all"/><path d="M 220 393 L 220 367 L 380 367 L 380 393" fill="rgb(255, 255, 255)" stroke="rgb(0, 0, 0)" stroke-miterlimit="10" pointer-events="all"/><path d="M 220 393 L 220 427 L 380 427 L 380 393" fill="none" stroke="rgb(0, 0, 0)" stroke-miterlimit="10" pointer-events="none"/><path d="M 220 393 L 380 393" fill="none" stroke="rgb(0, 0, 0)" stroke-miterlimit="10" pointer-events="none"/><g fill="rgb(0, 0, 0)" font-family="Helvetica" font-style="italic" text-anchor="middle" font-size="12px"><text x="299.5" y="384.5">MaxPool1d (Layer)</text></g><rect x="220" y="393" width="160" height="26" fill="none" stroke="none" pointer-events="all"/><g fill="rgb(0, 0, 0)" font-family="Helvetica" clip-path="url(#mx-clip-224-398-152-26-0)" font-size="12px"><text x="225.5" y="410.5">layer_spec: MaxPool1dSpec</text></g><path d="M 220 493 L 220 467 L 380 467 L 380 493" fill="rgb(255, 255, 255)" stroke="rgb(0, 0, 0)" stroke-miterlimit="10" pointer-events="all"/><path d="M 220 493 L 220 496 L 380 496 L 380 493" fill="none" stroke="rgb(0, 0, 0)" stroke-miterlimit="10" pointer-events="none"/><path d="M 220 493 L 380 493" fill="none" stroke="rgb(0, 0, 0)" stroke-miterlimit="10" pointer-events="none"/><g fill="rgb(0, 0, 0)" font-family="Helvetica" font-style="italic" text-anchor="middle" font-size="12px"><text x="299.5" y="484.5">MaxPool1dSpec (LayerSpec)</text></g><path d="M 380 406 L 380 408 L 400 408 L 400 447 L 300 447 L 300 460.63" fill="none" stroke="rgb(0, 0, 0)" stroke-miterlimit="10" pointer-events="stroke"/><path d="M 300 465.88 L 296.5 458.88 L 300 460.63 L 303.5 458.88 Z" fill="rgb(0, 0, 0)" stroke="rgb(0, 0, 0)" stroke-miterlimit="10" pointer-events="all"/><path d="M 600 67 L 620 67 L 620 347 L 300 347 L 300 360.63" fill="none" stroke="rgb(0, 0, 0)" stroke-miterlimit="10" pointer-events="stroke"/><path d="M 300 365.88 L 296.5 358.88 L 300 360.63 L 303.5 358.88 Z" fill="rgb(0, 0, 0)" stroke="rgb(0, 0, 0)" stroke-miterlimit="10" pointer-events="all"/><path d="M 580 406 L 600 406 L 600 467 L 500 467 L 500 481.63" fill="none" stroke="rgb(0, 0, 0)" stroke-miterlimit="10" pointer-events="stroke"/><path d="M 500 486.88 L 496.5 479.88 L 500 481.63 L 503.5 479.88 Z" fill="rgb(0, 0, 0)" stroke="rgb(0, 0, 0)" stroke-miterlimit="10" pointer-events="all"/></g></svg>